<svg xmlns="http://www.w3.org/2000/svg" viewBox="0 0 24 24" fill="currentColor"><path d="M6.763 10.036c0 .296.032.535.088.71.064.176.144.368.256.576.04.064.056.128.056.184 0 .08-.048.16-.152.24l-.503.335a.383.383 0 0 1-.208.072c-.08 0-.16-.04-.239-.112a2.47 2.47 0 0 1-.287-.375 6.18 6.18 0 0 1-.248-.471c-.622.734-1.405 1.101-2.347 1.101-.67 0-1.205-.191-1.596-.574-.391-.384-.59-.894-.59-1.533 0-.678.239-1.23.726-1.644.487-.415 1.133-.623 1.955-.623.272 0 .551.024.846.064.296.04.6.104.918.176v-.583c0-.607-.127-1.03-.375-1.277-.255-.248-.686-.367-1.3-.367-.28 0-.568.032-.863.104-.296.072-.583.16-.863.272a2.287 2.287 0 0 1-.28.104.488.488 0 0 1-.127.024c-.112 0-.168-.08-.168-.247v-.391c0-.128.016-.224.056-.28a.597.597 0 0 1 .224-.167c.28-.144.616-.264 1.01-.36a4.84 4.84 0 0 1 1.244-.152c.95 0 1.644.216 2.091.647.44.43.662 1.085.662 1.963v2.586zm-3.24 1.214c.263 0 .534-.048.822-.144.287-.096.543-.271.75-.518a1.3 1.3 0 0 0 .28-.559c.032-.176.056-.391.056-.647v-.31a6.555 6.555 0 0 0-.735-.136 6.052 6.052 0 0 0-.75-.048c-.535 0-.926.104-1.19.32-.263.215-.39.518-.39.917 0 .375.095.655.295.846.191.2.47.296.838.296l.024-.017zm6.41.862c-.144 0-.24-.024-.304-.08-.064-.048-.12-.16-.168-.311L7.586 5.55a1.398 1.398 0 0 1-.072-.335c0-.128.064-.2.191-.2h.783c.151 0 .255.025.31.08.065.048.113.16.16.312l1.342 5.284 1.245-5.284c.04-.16.088-.264.151-.312a.549.549 0 0 1 .32-.08h.638c.152 0 .256.025.32.08.063.048.12.16.151.312l1.261 5.348 1.381-5.348c.048-.16.104-.264.16-.312a.52.52 0 0 1 .311-.08h.743c.128 0 .2.064.2.2 0 .04-.009.08-.017.128a1.137 1.137 0 0 1-.056.216l-1.923 6.17c-.048.16-.104.263-.168.311a.51.51 0 0 1-.303.08h-.687c-.151 0-.255-.024-.32-.08-.063-.056-.119-.16-.15-.32l-1.238-5.148-1.23 5.14c-.04.168-.088.272-.152.328-.064.056-.176.08-.32.08l-.687-.008zm10.256.215c-.415 0-.83-.048-1.229-.143-.399-.096-.71-.2-.918-.32-.128-.071-.216-.151-.248-.24a.619.619 0 0 1-.048-.223v-.407c0-.167.064-.247.183-.247.048 0 .096.008.144.024.048.016.12.064.2.107.271.128.567.23.886.304.327.072.646.112.975.112.511 0 .91-.088 1.19-.264.279-.176.423-.431.423-.767a.845.845 0 0 0-.231-.599c-.152-.168-.44-.32-.862-.463l-1.238-.383c-.622-.2-1.085-.495-1.373-.886a2.03 2.03 0 0 1-.44-1.22c0-.351.072-.663.224-.926.152-.264.352-.495.607-.678a2.727 2.727 0 0 1 .886-.431 3.749 3.749 0 0 1 1.085-.152c.191 0 .391.008.575.032.192.024.367.056.535.088.16.04.312.08.455.128.144.048.256.096.336.144a.69.69 0 0 1 .24.2.43.43 0 0 1 .071.263v.375c0 .168-.064.256-.183.256a.828.828 0 0 1-.303-.096 3.652 3.652 0 0 0-1.532-.312c-.463 0-.83.072-1.093.223-.264.152-.399.383-.399.695 0 .24.08.44.248.6.168.159.48.319.926.463l1.213.375c.615.2 1.062.48 1.333.838.272.36.407.767.407 1.214 0 .36-.072.687-.224.975-.152.287-.36.535-.632.734a2.81 2.81 0 0 1-.951.463 4.12 4.12 0 0 1-1.213.168zM21.698 16.207c-2.626 1.94-6.442 2.97-9.722 2.97-4.598 0-8.74-1.7-11.87-4.526-.247-.224-.024-.527.27-.351 3.384 1.963 7.559 3.153 11.878 3.153 2.914 0 6.114-.607 9.06-1.852.439-.2.814.288.384.606z"/><path d="M22.792 14.961c-.336-.43-2.22-.207-3.074-.103-.255.032-.295-.192-.063-.36 1.5-1.053 3.967-.75 4.254-.399.287.36-.08 2.826-1.485 4.007-.216.176-.423.088-.327-.152.32-.79 1.03-2.57.695-2.993z"/></svg>
