<svg xmlns="http://www.w3.org/2000/svg" fill="none" viewBox="0 0 24 24" id="Eslint--Streamline-Svg-Logos" height="24" width="24">
  <desc>
    Eslint Streamline Icon: https://streamlinehq.com
  </desc>
  <path fill="#8080f2" d="M7.4069 9.07435 11.8655 6.5002c0.111575 -0.064425 0.249125 -0.064425 0.3607 0l4.4587 2.57415c0.111475 0.06445 0.180325 0.183475 0.180325 0.312375v5.1483c0 0.1288 -0.06885 0.247925 -0.180325 0.31245L12.2262 17.421625c-0.111575 0.06445 -0.249125 0.06445 -0.3607 0L7.4069 14.847475c-0.111575 -0.06445 -0.18035 -0.183575 -0.18035 -0.31245V9.386725c0.0001 -0.1289 0.068875 -0.247925 0.18035 -0.312375Z" stroke-width="0.25"></path>
  <path fill="#4b32c3" d="M23.60465 11.53895 18.27185 2.2613275c-0.1937 -0.33545 -0.55155 -0.58289 -0.938875 -0.58289H6.667175c-0.387425 0 -0.745375 0.24744 -0.939075 0.58289L0.395285 11.518475c-0.193713 0.33555 -0.193713 0.759025 0 1.09455L5.7281 21.814625c0.1937 0.33545 0.55165 0.50695 0.939075 0.50695h10.6657c0.387325 0 0.745275 -0.16635 0.938875 -0.5019l5.332825 -9.2166c0.1939 -0.33535 0.1939 -0.728675 0.000075 -1.064125ZM19.1888 16.00025c0 0.1364 -0.0821 0.26255 -0.20035 0.33085L12.195625 20.25025c-0.11815 0.0682 -0.26615 0.0682 -0.3843 0L5.013225 16.3311c-0.118125 -0.0683 -0.2008 -0.19435 -0.2008 -0.33085V8.16185c0 -0.136475 0.081475 -0.26255 0.1997 -0.330825l6.792575 -3.919175c0.118125 -0.068275 0.26595 -0.068275 0.3841 0l6.79855 3.919175c0.11825 0.068275 0.20145 0.19435 0.20145 0.330825V16.00025Z" stroke-width="0.25"></path>
</svg>