<svg xmlns="http://www.w3.org/2000/svg" viewBox="0 0 24 24" fill="currentColor"><path d="M4.104 2C2.16 2 1 3.14 1 5.06v13.88C1 20.86 2.16 22 4.104 22h15.792C21.84 22 23 20.86 23 18.94V5.06C23 3.14 21.84 2 19.896 2zM6.273 17.636h-1.69V7.09h1.69zm1.87-7.545c0-.34.28-.614.625-.614h6.384c.346 0 .625.274.625.614v4.818c0 .34-.28.614-.625.614H8.768a.62.62 0 0 1-.625-.614zm8.503 7.545h-1.69V15.09h1.69zm1.777-7.545h.705c.345 0 .625.274.625.614v4.818c0 .34-.28.614-.625.614h-.705zm-12.85 0h.704v6.046h-.704a.62.62 0 0 1-.625-.614v-4.818c0-.34.28-.614.625-.614z"/></svg>
