<svg xmlns="http://www.w3.org/2000/svg" viewBox="0 0 24 24" fill="currentColor"><path d="M5.042 15.165a2.528 2.528 0 0 1-2.52 2.523A2.528 2.528 0 0 1 0 15.165a2.527 2.527 0 0 1 2.522-2.52 2.527 2.527 0 0 1 2.52 2.52M9.464 3.83a2.527 2.527 0 0 1-2.52 2.52 2.527 2.527 0 0 1-2.521-2.52 2.527 2.527 0 0 1 2.52-2.52 2.528 2.528 0 0 1 2.521 2.52m0 16.34a2.528 2.528 0 0 1-2.52 2.52 2.527 2.527 0 0 1-2.521-2.52 2.527 2.527 0 0 1 2.52-2.52 2.528 2.528 0 0 1 2.521 2.52m5.06-11.335a2.527 2.527 0 0 1-2.52 2.52 2.527 2.527 0 0 1-2.521-2.52 2.527 2.527 0 0 1 2.52-2.52 2.528 2.528 0 0 1 2.521 2.52m0 11.335a2.528 2.528 0 0 1-2.52 2.52 2.527 2.527 0 0 1-2.521-2.52 2.527 2.527 0 0 1 2.52-2.52 2.528 2.528 0 0 1 2.521 2.52m4.424-5.667a2.528 2.528 0 0 1-2.52 2.522 2.527 2.527 0 0 1-2.521-2.522 2.527 2.527 0 0 1 2.52-2.52 2.528 2.528 0 0 1 2.521 2.52M24 8.835a2.528 2.528 0 0 1-2.52 2.522 2.527 2.527 0 0 1-2.521-2.522 2.527 2.527 0 0 1 2.52-2.52A2.528 2.528 0 0 1 24 8.835M19.476 3.83a2.527 2.527 0 0 1-2.52 2.52 2.527 2.527 0 0 1-2.521-2.52 2.527 2.527 0 0 1 2.52-2.52 2.528 2.528 0 0 1 2.521 2.52"/></svg>
