<svg xmlns="http://www.w3.org/2000/svg" viewBox="0 0 24 24" fill="currentColor"><path d="M2.328 12.929c.211-.009.39.053.539.159l.07.056 2.36 2.088c.107.092.175.22.194.36l.005.071-.009.07-.105.607a.456.456 0 0 1-.2.3l-.066.039-.68.33a.494.494 0 0 1-.29.048l-.076-.019-.595-.228a.465.465 0 0 1-.242-.228l-.032-.072-.438-1.409a.467.467 0 0 1 .015-.32l.04-.067.456-.572a.468.468 0 0 1-.013-.165l.016-.077.177-.52a.46.46 0 0 1 .196-.246l.073-.038.195-.075a.47.47 0 0 1 .156-.024l.254-.068zm19.344 0l.254.068a.47.47 0 0 1 .156.024l.195.075a.46.46 0 0 1 .27.284l.176.52a.464.464 0 0 1 .003.242l.456.572a.465.465 0 0 1 .055.387l-.438 1.409a.465.465 0 0 1-.274.3l-.595.228a.494.494 0 0 1-.366-.029l-.68-.33a.456.456 0 0 1-.266-.339l-.105-.607a.474.474 0 0 1 .199-.501l2.36-2.088.07-.056a.655.655 0 0 1 .524-.146l.001-.013zM12 1.805c1.4 0 2.763.2 4.052.574a.3.3 0 0 1 .175.138.294.294 0 0 1 .033.224 4.655 4.655 0 0 0-.153 1.205c0 2.6 2.112 4.712 4.713 4.712.41 0 .82-.053 1.217-.158l.09-.029a.295.295 0 0 1 .362.2A10.163 10.163 0 0 1 23 12c0 6.075-4.925 11-11 11S1 18.075 1 12 5.925 1 12 1c0 .268 0 .537.001.805z"/></svg>
